<svg xmlns="http://www.w3.org/2000/svg" width="50" height="50" viewBox="0 0 50 50" xmlns:xlink="http://www.w3.org/1999/xlink">
  <defs>
    <radialGradient id="b" r="50.127%" fx="50%" fy="50%">
      <stop stop-color="#CBCBCB" offset="0%"/>
      <stop stop-color="#9B9B9B" offset="100%"/>
    </radialGradient>
    <radialGradient id="c" cy="0%" r="100%" fx="50%" fy="0%">
      <stop stop-color="#6AB8FF" stop-opacity=".304" offset="0%"/>
      <stop stop-color="#000000" stop-opacity="0" offset="100%"/>
    </radialGradient>
    <path id="a" d="M24.779693,26.868153 C24.7801047,26.8686822 24.7805164,26.8692113 24.7809281,26.8697404 C23.3809701,28.9657683 21.2101663,30.5532074 18.5603946,31.1649554 C14.1542816,32.1821867 9.75585156,30.1941144 7.51270487,26.542708 C7.55734702,26.3850187 7.60595308,26.2278056 7.6585666,26.0711952 C7.58439442,26.1873267 7.51183603,26.3049593 7.44093596,26.4240775 C6.90977125,25.5324275 6.50600432,24.5443488 6.26000773,23.4788206 C6.07587954,22.6812737 5.99021806,21.8839786 5.99506458,21.0996719 C6.81009117,22.8993912 8.04581476,24.5415667 9.68577406,25.8695796 C14.1170185,29.4579306 20.1782375,29.6825402 24.779693,26.868153 Z M22.7996897,25.4795092 C22.8031101,25.4651163 22.8065532,25.4507346 22.8100187,25.4363641 C17.7753232,23.6058163 14.179426,18.7783027 14.179426,13.1109222 C14.179426,10.9948006 14.6807561,8.9957709 15.5711254,7.22612409 C14.9966058,7.68340083 14.4626431,8.2098124 13.9814157,8.80407883 C13.2807531,9.66932504 12.7440364,10.6140148 12.3673149,11.6005589 C12.4651791,11.5872896 12.5629809,11.5751494 12.6607059,11.564129 C12.5502829,11.6052611 12.4409047,11.6481704 12.3325968,11.6928158 C10.8448469,15.7050814 11.9877265,20.3867877 15.4975331,23.2289731 C17.6355581,24.9603116 20.2586537,25.690621 22.7996897,25.4795092 Z M19.3876562,2.64846636 C21.5850705,0.986075188 24.3225543,0 27.2903482,0 C31.9611868,0 36.0615519,2.44248695 38.3838869,6.11990409 C41.0225175,6.79341044 43.474762,8.29176894 45.3202855,10.5708006 C48.2818866,14.2280734 48.9521669,18.995656 47.5136995,23.1364811 C48.6497219,25.6584399 49.0000605,28.5588936 48.3298356,31.4619564 C47.2817581,36.0016788 43.9933914,39.4416407 39.9021254,40.8836612 C38.653441,43.315791 36.6363052,45.3794273 33.989979,46.6701268 C29.7707421,48.7279862 24.9879004,48.3158131 21.2806438,45.998026 C18.5586053,46.5464734 15.6413308,46.2380842 12.9528844,44.9268413 C8.77580051,42.8895413 6.16634,38.9264748 5.6721729,34.628191 C3.57068621,32.8627017 2.00390549,30.4251163 1.33893884,27.5448293 C0.28557625,22.9822147 1.75310849,18.4260446 4.82969843,15.3355636 C4.90101081,12.5490041 5.8578477,9.76321327 7.7476445,7.42950858 C10.6650015,3.82687266 15.0984631,2.17502117 19.3876562,2.64846636 Z M25.2395489,24.9747741 C25.0226156,24.8563994 24.8104295,24.7304176 24.6033492,24.5971872 C24.5574878,24.3324638 24.5221479,24.0665206 24.4972613,23.8000063 C24.6435348,23.6373394 24.7947553,23.4796589 24.9506243,23.3271512 C25.2220416,23.341318 25.4922794,23.3662618 25.7606992,23.4017629 C25.8886531,23.5830046 26.0104736,23.768066 26.1260412,23.9566001 C26.0511712,24.2211128 25.9658188,24.4819943 25.8703538,24.7386525 C25.6623842,24.8243959 25.4519892,24.9031164 25.2395489,24.9747741 Z M26.8555753,6.24851752 C22.8048102,7.61935735 19.8890211,11.4520291 19.8890211,15.9657198 C19.8890211,18.6930874 20.9536049,21.1718082 22.6898979,23.0090075 C22.6937074,23.007225 22.6975173,23.0054446 22.7013276,23.0036661 C21.0054156,17.9606953 22.5027336,12.1774851 26.8802145,8.63267101 C28.5688952,7.26520435 30.4942901,6.38623959 32.485403,5.97780427 C31.7337231,5.8023671 30.9502685,5.70959517 30.1451458,5.70959517 C29.0466111,5.70959517 27.9884151,5.88230621 26.9962303,6.20205602 C27.103219,6.3040899 27.2081389,6.40758388 27.310984,6.51248122 C27.1608215,6.42020952 27.0089648,6.33222727 26.8555753,6.24851752 Z M27.1272097,26.2208504 C27.1384666,26.2209876 27.1497269,26.2211107 27.1609907,26.2212196 C27.9308914,28.6443116 27.8066011,31.3559092 26.6040641,33.8214756 C24.620632,37.8881139 20.3038587,40.0553524 16.0522126,39.4973322 C15.9909412,39.4105313 15.9308655,39.3225537 15.8720196,39.2334113 C15.9017004,39.3175352 15.9322933,39.4015135 15.9638025,39.485334 C14.9225193,39.3393691 13.8861422,39.0295148 12.8899312,38.5436302 C12.1905603,38.2025243 11.5473668,37.7924067 10.9645511,37.3254773 C12.9038657,37.8068958 14.9828354,37.850681 17.0631448,37.3704037 C22.5740313,36.0981153 26.4642931,31.5245008 27.1272097,26.2208504 Z M26.9264681,21.8146554 C29.1107232,20.5277937 31.7730823,20.0435163 34.4382525,20.6588193 C38.8548842,21.6784791 41.9408414,25.4088161 42.3445203,29.6868124 C42.2807599,29.7577092 42.2158611,29.8278786 42.1498266,29.8972949 C42.2174053,29.8543518 42.2847045,29.8107192 42.3517147,29.766396 C42.4418771,30.809408 42.3726001,31.8840784 42.1243873,32.9592062 C41.9463154,33.7305204 41.6855716,34.4612508 41.3536765,35.1441986 C41.3949852,33.1292598 40.970784,31.0746288 40.0265479,29.1386579 C37.5522465,24.0655883 32.2374183,21.3047803 26.9313753,21.8373308 C26.9297464,21.8297724 26.9281107,21.822214 26.9264681,21.8146554 Z M28.0983609,23.9958535 C30.4388288,24.8930505 32.4578576,26.6451121 33.6433368,29.0757046 C35.6292977,33.1475278 34.6744782,37.8903696 31.6079001,40.8965757 C31.4550755,40.8885909 31.3018851,40.8771445 31.1484209,40.8621787 C31.269681,40.9052764 31.3919,40.9467081 31.5150578,40.9864414 C30.7680473,41.7003706 29.8995883,42.312637 28.9211822,42.7898375 C28.173279,43.1546143 27.4027373,43.4201765 26.624477,43.5916613 C28.2133524,42.3886902 29.5509637,40.8040047 30.4843533,38.8902724 C32.9758705,33.7819053 31.8466335,27.8473651 28.0983609,23.9958535 Z M24.5590977,21.3655308 C24.9158705,18.9002456 26.1662864,16.5576748 28.2547847,14.8664422 C31.7819474,12.0102022 36.6292816,11.8783699 40.2504207,14.2033116 C40.2746837,14.3434094 40.2961042,14.4844815 40.3146208,14.6264663 C40.3282951,14.5076653 40.3403814,14.3883811 40.350858,14.2686354 C41.2099247,14.8345916 41.9977497,15.5404472 42.679679,16.3825597 C43.2119263,17.0398303 43.6495695,17.7429435 43.9943406,18.4754221 C42.4568134,17.1805219 40.5974393,16.2209987 38.5042613,15.7377504 C32.9858188,14.4637176 27.4768039,16.8774238 24.5590977,21.3655308 Z"/>
  </defs>
  <g fill="none" fill-rule="evenodd">
    <use fill="url(#b)" fill-opacity=".6" xlink:href="#a"/>
    <use fill="url(#c)" xlink:href="#a"/>
  </g>
</svg>